<svg xmlns="http://www.w3.org/2000/svg" width="720" height="420" viewBox="0 0 720 420" font-size="12" fill="#1F2733"><rect x="0" y="0" width="720" height="420" fill="#FFFFFF"/><text x="360.0" y="22" text-anchor="middle" font-size="15" font-weight="bold" font-family="HarmonyOS Sans SC, PingFang SC, Microsoft YaHei, Noto Sans CJK SC, sans-serif">随机森林训练曲线：测试集 AUC 随树数量变化</text><line x1="60" y1="350" x2="660" y2="350" stroke="#1F2733" stroke-width="1"/><line x1="60" y1="350" x2="60" y2="50" stroke="#1F2733" stroke-width="1"/><line x1="60.0" y1="350" x2="60.0" y2="354" stroke="#1F2733"/><text x="60.0" y="368" text-anchor="middle" font-size="10" font-family="HarmonyOS Sans SC, PingFang SC, Microsoft YaHei, Noto Sans CJK SC, sans-serif">25</text><line x1="145.71428571428572" y1="350" x2="145.71428571428572" y2="354" stroke="#1F2733"/><text x="145.71428571428572" y="368" text-anchor="middle" font-size="10" font-family="HarmonyOS Sans SC, PingFang SC, Microsoft YaHei, Noto Sans CJK SC, sans-serif">50</text><line x1="231.42857142857142" y1="350" x2="231.42857142857142" y2="354" stroke="#1F2733"/><text x="231.42857142857142" y="368" text-anchor="middle" font-size="10" font-family="HarmonyOS Sans SC, PingFang SC, Microsoft YaHei, Noto Sans CJK SC, sans-serif">75</text><line x1="317.1428571428571" y1="350" x2="317.1428571428571" y2="354" stroke="#1F2733"/><text x="317.1428571428571" y="368" text-anchor="middle" font-size="10" font-family="HarmonyOS Sans SC, PingFang SC, Microsoft YaHei, Noto Sans CJK SC, sans-serif">100</text><line x1="402.85714285714283" y1="350" x2="402.85714285714283" y2="354" stroke="#1F2733"/><text x="402.85714285714283" y="368" text-anchor="middle" font-size="10" font-family="HarmonyOS Sans SC, PingFang SC, Microsoft YaHei, Noto Sans CJK SC, sans-serif">125</text><line x1="488.57142857142856" y1="350" x2="488.57142857142856" y2="354" stroke="#1F2733"/><text x="488.57142857142856" y="368" text-anchor="middle" font-size="10" font-family="HarmonyOS Sans SC, PingFang SC, Microsoft YaHei, Noto Sans CJK SC, sans-serif">150</text><line x1="574.2857142857142" y1="350" x2="574.2857142857142" y2="354" stroke="#1F2733"/><text x="574.2857142857142" y="368" text-anchor="middle" font-size="10" font-family="HarmonyOS Sans SC, PingFang SC, Microsoft YaHei, Noto Sans CJK SC, sans-serif">175</text><line x1="660.0" y1="350" x2="660.0" y2="354" stroke="#1F2733"/><text x="660.0" y="368" text-anchor="middle" font-size="10" font-family="HarmonyOS Sans SC, PingFang SC, Microsoft YaHei, Noto Sans CJK SC, sans-serif">200</text><line x1="56" y1="350.0" x2="60" y2="350.0" stroke="#1F2733"/><text x="53" y="353.0" text-anchor="end" font-size="10" font-family="HarmonyOS Sans SC, PingFang SC, Microsoft YaHei, Noto Sans CJK SC, sans-serif">0.00</text><line x1="56" y1="290.0" x2="60" y2="290.0" stroke="#1F2733"/><text x="53" y="293.0" text-anchor="end" font-size="10" font-family="HarmonyOS Sans SC, PingFang SC, Microsoft YaHei, Noto Sans CJK SC, sans-serif">0.20</text><line x1="56" y1="230.0" x2="60" y2="230.0" stroke="#1F2733"/><text x="53" y="233.0" text-anchor="end" font-size="10" font-family="HarmonyOS Sans SC, PingFang SC, Microsoft YaHei, Noto Sans CJK SC, sans-serif">0.40</text><line x1="56" y1="170.0" x2="60" y2="170.0" stroke="#1F2733"/><text x="53" y="173.0" text-anchor="end" font-size="10" font-family="HarmonyOS Sans SC, PingFang SC, Microsoft YaHei, Noto Sans CJK SC, sans-serif">0.60</text><line x1="56" y1="110.0" x2="60" y2="110.0" stroke="#1F2733"/><text x="53" y="113.0" text-anchor="end" font-size="10" font-family="HarmonyOS Sans SC, PingFang SC, Microsoft YaHei, Noto Sans CJK SC, sans-serif">0.80</text><line x1="56" y1="50.0" x2="60" y2="50.0" stroke="#1F2733"/><text x="53" y="53.0" text-anchor="end" font-size="10" font-family="HarmonyOS Sans SC, PingFang SC, Microsoft YaHei, Noto Sans CJK SC, sans-serif">1.00</text><text x="360.0" y="388" text-anchor="middle" font-size="11" font-family="HarmonyOS Sans SC, PingFang SC, Microsoft YaHei, Noto Sans CJK SC, sans-serif">树数量</text><text x="14" y="200.0" text-anchor="middle" font-size="11" font-family="HarmonyOS Sans SC, PingFang SC, Microsoft YaHei, Noto Sans CJK SC, sans-serif" transform="rotate(-90 14 200.0)">AUC</text><polyline points="60.0,68.7 145.7,68.7 231.4,68.2 317.1,67.9 402.9,66.9 488.6,67.3 574.3,67.2 660.0,67.3" fill="none" stroke="#2F54EB" stroke-width="2.5"/><circle cx="60.0" cy="68.7" r="2.5" fill="#2F54EB"/><circle cx="145.7" cy="68.7" r="2.5" fill="#2F54EB"/><circle cx="231.4" cy="68.2" r="2.5" fill="#2F54EB"/><circle cx="317.1" cy="67.9" r="2.5" fill="#2F54EB"/><circle cx="402.9" cy="66.9" r="2.5" fill="#2F54EB"/><circle cx="488.6" cy="67.3" r="2.5" fill="#2F54EB"/><circle cx="574.3" cy="67.2" r="2.5" fill="#2F54EB"/><circle cx="660.0" cy="67.3" r="2.5" fill="#2F54EB"/><rect x="80" y="51" width="12" height="12" fill="#2F54EB" rx="2"/><text x="98" y="61" font-size="11" font-family="HarmonyOS Sans SC, PingFang SC, Microsoft YaHei, Noto Sans CJK SC, sans-serif">测试集 AUC</text></svg>